<?xml version="1.0" encoding="UTF-8" standalone="no"?>
<!DOCTYPE svg PUBLIC "-//W3C//DTD SVG 1.1//EN" "http://www.w3.org/Graphics/SVG/1.1/DTD/svg11.dtd">
<svg xmlns="http://www.w3.org/2000/svg" xmlns:xlink="http://www.w3.org/1999/xlink" version="1.1" width="139.69043pt" height="210.96pt" viewBox="0 0 139.69043 210.96">
<g enable-background="new">
<path transform="matrix(1,0,0,-1,0,210.96)" d="M 0 0 L 139.69043 0 L 139.69043 210.96 L 0 210.96 Z " fill="#ffffff"/>
<path transform="matrix(1,0,0,-1,0,210.96)" d="M 41.267984 125.08967 L 119.63084 125.08967 L 119.63084 179.93795 L 41.267984 179.93795 Z " fill="#ffffff"/>
<path transform="matrix(1,0,0,-1,0,210.96)" d="M 41.267984 125.08967 L 41.267984 117.08967 " fill="#333333"/>
<path transform="matrix(1,0,0,-1,0,210.96)" stroke-width="1" stroke-linecap="butt" stroke-linejoin="round" fill="none" stroke="#333333" d="M 41.267984 125.08967 L 41.267984 117.08967 "/>
<text fill="#333333" xml:space="preserve" transform="matrix(1 0 -0 1 0 210.96)" font-size="8.219178" font-family="CMR8"><tspan y="-107.88191" x="35.68857">0</tspan></text>
<text fill="#333333" xml:space="preserve" transform="matrix(1 0 -0 1 0 210.96)" font-size="8.219178" font-family="CMMI8" font-style="italic"><tspan y="-107.88191" x="40.05507">.</tspan></text>
<text fill="#333333" xml:space="preserve" transform="matrix(1 0 -0 1 0 210.96)" font-size="8.219178" font-family="CMR8"><tspan y="-107.88191" x="42.480894">0</tspan></text>
<path transform="matrix(1,0,0,-1,0,210.96)" d="M 80.44941 125.08967 L 80.44941 117.08967 " fill="#333333"/>
<path transform="matrix(1,0,0,-1,0,210.96)" stroke-width="1" stroke-linecap="butt" stroke-linejoin="round" fill="none" stroke="#333333" d="M 80.44941 125.08967 L 80.44941 117.08967 "/>
<text fill="#333333" xml:space="preserve" transform="matrix(1 0 -0 1 0 210.96)" font-size="8.219178" font-family="CMR8"><tspan y="-107.88191" x="74.87">0</tspan></text>
<text fill="#333333" xml:space="preserve" transform="matrix(1 0 -0 1 0 210.96)" font-size="8.219178" font-family="CMMI8" font-style="italic"><tspan y="-107.88191" x="79.2365">.</tspan></text>
<text fill="#333333" xml:space="preserve" transform="matrix(1 0 -0 1 0 210.96)" font-size="8.219178" font-family="CMR8"><tspan y="-107.88191" x="81.66233">5</tspan></text>
<path transform="matrix(1,0,0,-1,0,210.96)" d="M 119.63084 125.08967 L 119.63084 117.08967 " fill="#333333"/>
<path transform="matrix(1,0,0,-1,0,210.96)" stroke-width="1" stroke-linecap="butt" stroke-linejoin="round" fill="none" stroke="#333333" d="M 119.63084 125.08967 L 119.63084 117.08967 "/>
<text fill="#333333" xml:space="preserve" transform="matrix(1 0 -0 1 0 210.96)" font-size="8.219178" font-family="CMR8"><tspan y="-107.88191" x="114.05143">1</tspan></text>
<text fill="#333333" xml:space="preserve" transform="matrix(1 0 -0 1 0 210.96)" font-size="8.219178" font-family="CMMI8" font-style="italic"><tspan y="-107.88191" x="118.41793">.</tspan></text>
<text fill="#333333" xml:space="preserve" transform="matrix(1 0 -0 1 0 210.96)" font-size="8.219178" font-family="CMR8"><tspan y="-107.88191" x="120.84376">0</tspan></text>
<path transform="matrix(1,0,0,-1,0,210.96)" d="M 41.267984 125.08967 L 35.267984 125.08967 " fill="#333333"/>
<path transform="matrix(1,0,0,-1,0,210.96)" stroke-width="1.25" stroke-linecap="butt" stroke-linejoin="round" fill="none" stroke="#333333" d="M 41.267984 125.08967 L 35.267984 125.08967 "/>
<text fill="#333333" xml:space="preserve" transform="matrix(1 0 -0 1 0 210.96)" font-size="8.219178" font-family="CMR8"><tspan y="-122.23579" x="20.609158">0</tspan></text>
<text fill="#333333" xml:space="preserve" transform="matrix(1 0 -0 1 0 210.96)" font-size="8.219178" font-family="CMMI8" font-style="italic"><tspan y="-122.23579" x="24.975657">.</tspan></text>
<text fill="#333333" xml:space="preserve" transform="matrix(1 0 -0 1 0 210.96)" font-size="8.219178" font-family="CMR8"><tspan y="-122.23579" x="27.401482">0</tspan></text>
<path transform="matrix(1,0,0,-1,0,210.96)" d="M 41.267984 152.51381 L 35.267984 152.51381 " fill="#333333"/>
<path transform="matrix(1,0,0,-1,0,210.96)" stroke-width="1.25" stroke-linecap="butt" stroke-linejoin="round" fill="none" stroke="#333333" d="M 41.267984 152.51381 L 35.267984 152.51381 "/>
<text fill="#333333" xml:space="preserve" transform="matrix(1 0 -0 1 0 210.96)" font-size="8.219178" font-family="CMR8"><tspan y="-149.65993" x="20.609158">0</tspan></text>
<text fill="#333333" xml:space="preserve" transform="matrix(1 0 -0 1 0 210.96)" font-size="8.219178" font-family="CMMI8" font-style="italic"><tspan y="-149.65993" x="24.975657">.</tspan></text>
<text fill="#333333" xml:space="preserve" transform="matrix(1 0 -0 1 0 210.96)" font-size="8.219178" font-family="CMR8"><tspan y="-149.65993" x="27.401482">5</tspan></text>
<path transform="matrix(1,0,0,-1,0,210.96)" d="M 41.267984 179.93795 L 35.267984 179.93795 " fill="#333333"/>
<path transform="matrix(1,0,0,-1,0,210.96)" stroke-width="1.25" stroke-linecap="butt" stroke-linejoin="round" fill="none" stroke="#333333" d="M 41.267984 179.93795 L 35.267984 179.93795 "/>
<text fill="#333333" xml:space="preserve" transform="matrix(1 0 -0 1 0 210.96)" font-size="8.219178" font-family="CMR8"><tspan y="-177.08408" x="20.609158">1</tspan></text>
<text fill="#333333" xml:space="preserve" transform="matrix(1 0 -0 1 0 210.96)" font-size="8.219178" font-family="CMMI8" font-style="italic"><tspan y="-177.08408" x="24.975657">.</tspan></text>
<text fill="#333333" xml:space="preserve" transform="matrix(1 0 -0 1 0 210.96)" font-size="8.219178" font-family="CMR8"><tspan y="-177.08408" x="27.401482">0</tspan></text>
<text fill="#333333" xml:space="preserve" transform="matrix(0 -1 1 0 0 210.96)" font-size="9.96264" font-family="CMSS10"><tspan y="14.67198" x="124.02338 135.64313 140.62445 146.98394 152.5132 157.29528 165.20561 170.34633 172.71744 177.14086">%ofSamples</tspan></text>
<clipPath id="cp0">
<path transform="matrix(1,0,0,-1,0,210.96)" d="M 41.267984 125.08967 L 119.630847 125.08967 L 119.630847 179.93796 L 41.267984 179.93796 Z "/>
</clipPath>
<g clip-path="url(#cp0)">
<path transform="matrix(1,0,0,-1,0,210.96)" d="M 41.267984 125.08967 L 49.104269 125.08967 L 41.267984 125.08967 Z " fill="#4c72b0"/>
<path transform="matrix(1,0,0,-1,0,210.96)" stroke-width="1" stroke-linecap="butt" stroke-miterlimit="10" stroke-linejoin="miter" fill="none" stroke="#000000" d="M 41.267984 125.08967 L 49.104269 125.08967 L 41.267984 125.08967 Z "/>
</g>
<clipPath id="cp1">
<path transform="matrix(1,0,0,-1,0,210.96)" d="M 41.267984 125.08967 L 119.630847 125.08967 L 119.630847 179.93796 L 41.267984 179.93796 Z "/>
</clipPath>
<g clip-path="url(#cp1)">
<path transform="matrix(1,0,0,-1,0,210.96)" d="M 49.104269 125.08967 L 56.94055 125.08967 L 49.104269 125.08967 Z " fill="#4c72b0"/>
<path transform="matrix(1,0,0,-1,0,210.96)" stroke-width="1" stroke-linecap="butt" stroke-miterlimit="10" stroke-linejoin="miter" fill="none" stroke="#000000" d="M 49.104269 125.08967 L 56.94055 125.08967 L 49.104269 125.08967 Z "/>
</g>
<clipPath id="cp2">
<path transform="matrix(1,0,0,-1,0,210.96)" d="M 41.267984 125.08967 L 119.630847 125.08967 L 119.630847 179.93796 L 41.267984 179.93796 Z "/>
</clipPath>
<g clip-path="url(#cp2)">
<path transform="matrix(1,0,0,-1,0,210.96)" d="M 56.94055 125.08967 L 64.77684 125.08967 L 56.94055 125.08967 Z " fill="#4c72b0"/>
<path transform="matrix(1,0,0,-1,0,210.96)" stroke-width="1" stroke-linecap="butt" stroke-miterlimit="10" stroke-linejoin="miter" fill="none" stroke="#000000" d="M 56.94055 125.08967 L 64.77684 125.08967 L 56.94055 125.08967 Z "/>
</g>
<clipPath id="cp3">
<path transform="matrix(1,0,0,-1,0,210.96)" d="M 41.267984 125.08967 L 119.630847 125.08967 L 119.630847 179.93796 L 41.267984 179.93796 Z "/>
</clipPath>
<g clip-path="url(#cp3)">
<path transform="matrix(1,0,0,-1,0,210.96)" d="M 64.77684 125.08967 L 72.61313 125.08967 L 72.61313 125.48379 L 64.77684 125.48379 Z " fill="#4c72b0"/>
<path transform="matrix(1,0,0,-1,0,210.96)" stroke-width="1" stroke-linecap="butt" stroke-miterlimit="10" stroke-linejoin="miter" fill="none" stroke="#000000" d="M 64.77684 125.08967 L 72.61313 125.08967 L 72.61313 125.48379 L 64.77684 125.48379 Z "/>
</g>
<clipPath id="cp4">
<path transform="matrix(1,0,0,-1,0,210.96)" d="M 41.267984 125.08967 L 119.630847 125.08967 L 119.630847 179.93796 L 41.267984 179.93796 Z "/>
</clipPath>
<g clip-path="url(#cp4)">
<path transform="matrix(1,0,0,-1,0,210.96)" d="M 72.61313 125.08967 L 80.44941 125.08967 L 80.44941 128.374 L 72.61313 128.374 Z " fill="#4c72b0"/>
<path transform="matrix(1,0,0,-1,0,210.96)" stroke-width="1" stroke-linecap="butt" stroke-miterlimit="10" stroke-linejoin="miter" fill="none" stroke="#000000" d="M 72.61313 125.08967 L 80.44941 125.08967 L 80.44941 128.374 L 72.61313 128.374 Z "/>
</g>
<clipPath id="cp5">
<path transform="matrix(1,0,0,-1,0,210.96)" d="M 41.267984 125.08967 L 119.630847 125.08967 L 119.630847 179.93796 L 41.267984 179.93796 Z "/>
</clipPath>
<g clip-path="url(#cp5)">
<path transform="matrix(1,0,0,-1,0,210.96)" d="M 80.44941 125.08967 L 88.2857 125.08967 L 88.2857 129.85195 L 80.44941 129.85195 Z " fill="#4c72b0"/>
<path transform="matrix(1,0,0,-1,0,210.96)" stroke-width="1" stroke-linecap="butt" stroke-miterlimit="10" stroke-linejoin="miter" fill="none" stroke="#000000" d="M 80.44941 125.08967 L 88.2857 125.08967 L 88.2857 129.85195 L 80.44941 129.85195 Z "/>
</g>
<clipPath id="cp6">
<path transform="matrix(1,0,0,-1,0,210.96)" d="M 41.267984 125.08967 L 119.630847 125.08967 L 119.630847 179.93796 L 41.267984 179.93796 Z "/>
</clipPath>
<g clip-path="url(#cp6)">
<path transform="matrix(1,0,0,-1,0,210.96)" d="M 88.2857 125.08967 L 96.12198 125.08967 L 96.12198 130.36649 L 88.2857 130.36649 Z " fill="#4c72b0"/>
<path transform="matrix(1,0,0,-1,0,210.96)" stroke-width="1" stroke-linecap="butt" stroke-miterlimit="10" stroke-linejoin="miter" fill="none" stroke="#000000" d="M 88.2857 125.08967 L 96.12198 125.08967 L 96.12198 130.36649 L 88.2857 130.36649 Z "/>
</g>
<clipPath id="cp7">
<path transform="matrix(1,0,0,-1,0,210.96)" d="M 41.267984 125.08967 L 119.630847 125.08967 L 119.630847 179.93796 L 41.267984 179.93796 Z "/>
</clipPath>
<g clip-path="url(#cp7)">
<path transform="matrix(1,0,0,-1,0,210.96)" d="M 96.12198 125.08967 L 103.95827 125.08967 L 103.95827 133.72745 L 96.12198 133.72745 Z " fill="#4c72b0"/>
<path transform="matrix(1,0,0,-1,0,210.96)" stroke-width="1" stroke-linecap="butt" stroke-miterlimit="10" stroke-linejoin="miter" fill="none" stroke="#000000" d="M 96.12198 125.08967 L 103.95827 125.08967 L 103.95827 133.72745 L 96.12198 133.72745 Z "/>
</g>
<clipPath id="cp8">
<path transform="matrix(1,0,0,-1,0,210.96)" d="M 41.267984 125.08967 L 119.630847 125.08967 L 119.630847 179.93796 L 41.267984 179.93796 Z "/>
</clipPath>
<g clip-path="url(#cp8)">
<path transform="matrix(1,0,0,-1,0,210.96)" d="M 103.95827 125.08967 L 111.794559 125.08967 L 111.794559 149.72212 L 103.95827 149.72212 Z " fill="#4c72b0"/>
<path transform="matrix(1,0,0,-1,0,210.96)" stroke-width="1" stroke-linecap="butt" stroke-miterlimit="10" stroke-linejoin="miter" fill="none" stroke="#000000" d="M 103.95827 125.08967 L 111.794559 125.08967 L 111.794559 149.72212 L 103.95827 149.72212 Z "/>
</g>
<clipPath id="cp9">
<path transform="matrix(1,0,0,-1,0,210.96)" d="M 41.267984 125.08967 L 119.630847 125.08967 L 119.630847 179.93796 L 41.267984 179.93796 Z "/>
</clipPath>
<g clip-path="url(#cp9)">
<path transform="matrix(1,0,0,-1,0,210.96)" d="M 111.794559 125.08967 L 119.63084 125.08967 L 119.63084 132.95017 L 111.794559 132.95017 Z " fill="#4c72b0"/>
<path transform="matrix(1,0,0,-1,0,210.96)" stroke-width="1" stroke-linecap="butt" stroke-miterlimit="10" stroke-linejoin="miter" fill="none" stroke="#000000" d="M 111.794559 125.08967 L 119.63084 125.08967 L 119.63084 132.95017 L 111.794559 132.95017 Z "/>
</g>
<clipPath id="cp10">
<path transform="matrix(1,0,0,-1,0,210.96)" d="M 41.267984 125.08967 L 119.630847 125.08967 L 119.630847 179.93796 L 41.267984 179.93796 Z "/>
</clipPath>
<g clip-path="url(#cp10)">
<path transform="matrix(1,0,0,-1,0,210.96)" stroke-width="1.25" stroke-linecap="butt" stroke-dasharray="4.625,2" stroke-linejoin="round" fill="none" stroke="#000000" d="M 92.89988 125.08967 L 92.89988 179.93795 "/>
</g>
<clipPath id="cp11">
<path transform="matrix(1,0,0,-1,0,210.96)" d="M 41.267984 125.08967 L 119.630847 125.08967 L 119.630847 179.93796 L 41.267984 179.93796 Z "/>
</clipPath>
<g clip-path="url(#cp11)">
<path transform="matrix(1,0,0,-1,0,210.96)" stroke-width="1.25" stroke-linecap="butt" stroke-dasharray="4.625,2" stroke-linejoin="round" fill="none" stroke="#dc143c" d="M 101.946178 125.08967 L 101.946178 179.93795 "/>
</g>
<path transform="matrix(1,0,0,-1,0,210.96)" stroke-width="1.25" stroke-linecap="square" stroke-miterlimit="10" stroke-linejoin="miter" fill="none" stroke="#333333" d="M 41.267984 125.08967 L 41.267984 179.93795 "/>
<path transform="matrix(1,0,0,-1,0,210.96)" stroke-width="1.25" stroke-linecap="square" stroke-miterlimit="10" stroke-linejoin="miter" fill="none" stroke="#333333" d="M 119.63084 125.08967 L 119.63084 179.93795 "/>
<path transform="matrix(1,0,0,-1,0,210.96)" stroke-width="1.25" stroke-linecap="square" stroke-miterlimit="10" stroke-linejoin="miter" fill="none" stroke="#333333" d="M 41.267984 125.08967 L 119.63084 125.08967 "/>
<path transform="matrix(1,0,0,-1,0,210.96)" stroke-width="1.25" stroke-linecap="square" stroke-miterlimit="10" stroke-linejoin="miter" fill="none" stroke="#333333" d="M 41.267984 179.93795 L 119.63084 179.93795 "/>
<text fill="#333333" xml:space="preserve" transform="matrix(1 0 -0 1 0 210.96)" font-size="9.96264" font-family="CMSS10"><tspan y="-196.8415" x="65.87903 71.408298 77.93603 82.718097 87.85882 90.22993 92.601039">Swahili</tspan></text>
<text fill="#333333" xml:space="preserve" transform="matrix(1 0 -0 1 0 210.96)" font-size="9.96264" font-family="CMSS10"><tspan y="-185.93795" x="28.408389 32.27389 38.630056 43.41212 45.78323 48.15434 53.01831 56.41557 61.197637 64.79415 72.53844 77.67916 81.49485 83.86596 89.00668 97.30888 101.7323 110.1939 115.334629 120.11669 123.7132 128.49527">(Calibrateusingendata)</tspan></text>
<g>
<path transform="matrix(1,0,0,-1,0,210.96)" d="M 46.16798 140.60497 L 102.33587 140.60497 C 103.2692 140.60497 103.73587 141.07163 103.73587 142.00496 L 103.73587 175.03795 C 103.73587 175.97129 103.2692 176.43795 102.33587 176.43795 L 46.16798 176.43795 C 45.23465 176.43795 44.767984 175.97129 44.767984 175.03795 L 44.767984 142.00496 C 44.767984 141.07163 45.23465 140.60497 46.16798 140.60497 Z " fill="#ffffff" fill-opacity=".8"/>
<path transform="matrix(1,0,0,-1,0,210.96)" stroke-width="1" stroke-linecap="butt" stroke-miterlimit="10" stroke-linejoin="miter" fill="none" stroke="#d5d6d5" stroke-opacity=".8" d="M 46.16798 140.60497 L 102.33587 140.60497 C 103.2692 140.60497 103.73587 141.07163 103.73587 142.00496 L 103.73587 175.03795 C 103.73587 175.97129 103.2692 176.43795 102.33587 176.43795 L 46.16798 176.43795 C 45.23465 176.43795 44.767984 175.97129 44.767984 175.03795 L 44.767984 142.00496 C 44.767984 141.07163 45.23465 140.60497 46.16798 140.60497 Z "/>
</g>
<path transform="matrix(1,0,0,-1,0,210.96)" stroke-width="1.25" stroke-linecap="butt" stroke-dasharray="4.625,2" stroke-linejoin="round" fill="none" stroke="#000000" d="M 47.56798 166.98323 L 54.56798 166.98323 L 61.56798 166.98323 "/>
<text fill="#333333" xml:space="preserve" transform="matrix(1 0 -0 1 0 210.96)" font-size="6.973848" font-family="CMSS8"><tspan y="-168.79502" x="67.167987 72.10547 75.51568 79.21879">Avg.</tspan></text>
<text fill="#333333" xml:space="preserve" transform="matrix(1 0 -0 1 0 210.96)" font-size="6.973848" font-family="CMSS8"><tspan y="-161.62747" x="67.167987 72.10547 75.397129 78.68878 82.51045 85.03499 88.59165 91.88331">Accuracy</tspan></text>
<path transform="matrix(1,0,0,-1,0,210.96)" stroke-width="1.25" stroke-linecap="butt" stroke-dasharray="4.625,2" stroke-linejoin="round" fill="none" stroke="#dc143c" d="M 47.56798 150.11675 L 54.56798 150.11675 L 61.56798 150.11675 "/>
<text fill="#333333" xml:space="preserve" transform="matrix(1 0 -0 1 0 210.96)" font-size="6.973848" font-family="CMSS8"><tspan y="-151.92852" x="67.167987 72.10547 75.51568 79.21879">Avg.</tspan></text>
<text fill="#333333" xml:space="preserve" transform="matrix(1 0 -0 1 0 210.96)" font-size="6.973848" font-family="CMSS8"><tspan y="-144.76097" x="67.167987 71.896259 75.599369 79.421039 83.38915 87.21082 90.50248 94.32415 97.61581">Con&#xfb01;dence</tspan></text>
<path transform="matrix(1,0,0,-1,0,210.96)" d="M 41.267984 38.86159 L 119.63084 38.86159 L 119.63084 93.70988 L 41.267984 93.70988 Z " fill="#ffffff"/>
<path transform="matrix(1,0,0,-1,0,210.96)" d="M 41.267984 38.86159 L 41.267984 30.861594 " fill="#333333"/>
<path transform="matrix(1,0,0,-1,0,210.96)" stroke-width="1" stroke-linecap="butt" stroke-linejoin="round" fill="none" stroke="#333333" d="M 41.267984 38.86159 L 41.267984 30.861594 "/>
<text fill="#333333" xml:space="preserve" transform="matrix(1 0 -0 1 0 210.96)" font-size="8.219178" font-family="CMR8"><tspan y="-21.65384" x="35.68857">0</tspan></text>
<text fill="#333333" xml:space="preserve" transform="matrix(1 0 -0 1 0 210.96)" font-size="8.219178" font-family="CMMI8" font-style="italic"><tspan y="-21.65384" x="40.05507">.</tspan></text>
<text fill="#333333" xml:space="preserve" transform="matrix(1 0 -0 1 0 210.96)" font-size="8.219178" font-family="CMR8"><tspan y="-21.65384" x="42.480894">0</tspan></text>
<path transform="matrix(1,0,0,-1,0,210.96)" d="M 80.44941 38.86159 L 80.44941 30.861594 " fill="#333333"/>
<path transform="matrix(1,0,0,-1,0,210.96)" stroke-width="1" stroke-linecap="butt" stroke-linejoin="round" fill="none" stroke="#333333" d="M 80.44941 38.86159 L 80.44941 30.861594 "/>
<text fill="#333333" xml:space="preserve" transform="matrix(1 0 -0 1 0 210.96)" font-size="8.219178" font-family="CMR8"><tspan y="-21.65384" x="74.87">0</tspan></text>
<text fill="#333333" xml:space="preserve" transform="matrix(1 0 -0 1 0 210.96)" font-size="8.219178" font-family="CMMI8" font-style="italic"><tspan y="-21.65384" x="79.2365">.</tspan></text>
<text fill="#333333" xml:space="preserve" transform="matrix(1 0 -0 1 0 210.96)" font-size="8.219178" font-family="CMR8"><tspan y="-21.65384" x="81.66233">5</tspan></text>
<path transform="matrix(1,0,0,-1,0,210.96)" d="M 119.63084 38.86159 L 119.63084 30.861594 " fill="#333333"/>
<path transform="matrix(1,0,0,-1,0,210.96)" stroke-width="1" stroke-linecap="butt" stroke-linejoin="round" fill="none" stroke="#333333" d="M 119.63084 38.86159 L 119.63084 30.861594 "/>
<text fill="#333333" xml:space="preserve" transform="matrix(1 0 -0 1 0 210.96)" font-size="8.219178" font-family="CMR8"><tspan y="-21.65384" x="114.05143">1</tspan></text>
<text fill="#333333" xml:space="preserve" transform="matrix(1 0 -0 1 0 210.96)" font-size="8.219178" font-family="CMMI8" font-style="italic"><tspan y="-21.65384" x="118.41793">.</tspan></text>
<text fill="#333333" xml:space="preserve" transform="matrix(1 0 -0 1 0 210.96)" font-size="8.219178" font-family="CMR8"><tspan y="-21.65384" x="120.84376">0</tspan></text>
<text fill="#333333" xml:space="preserve" transform="matrix(1 0 -0 1 0 210.96)" font-size="9.96264" font-family="CMSS10"><tspan y="-9.137178" x="57.742876 64.09904 69.08036 74.221088 79.56106 84.70178 89.1252 94.26592 98.68933">Con&#xfb01;dence</tspan></text>
<path transform="matrix(1,0,0,-1,0,210.96)" d="M 41.267984 38.86159 L 35.267984 38.86159 " fill="#333333"/>
<path transform="matrix(1,0,0,-1,0,210.96)" stroke-width="1.25" stroke-linecap="butt" stroke-linejoin="round" fill="none" stroke="#333333" d="M 41.267984 38.86159 L 35.267984 38.86159 "/>
<text fill="#333333" xml:space="preserve" transform="matrix(1 0 -0 1 0 210.96)" font-size="8.219178" font-family="CMR8"><tspan y="-36.007719" x="20.609158">0</tspan></text>
<text fill="#333333" xml:space="preserve" transform="matrix(1 0 -0 1 0 210.96)" font-size="8.219178" font-family="CMMI8" font-style="italic"><tspan y="-36.007719" x="24.975657">.</tspan></text>
<text fill="#333333" xml:space="preserve" transform="matrix(1 0 -0 1 0 210.96)" font-size="8.219178" font-family="CMR8"><tspan y="-36.007719" x="27.401482">0</tspan></text>
<path transform="matrix(1,0,0,-1,0,210.96)" d="M 41.267984 66.285739 L 35.267984 66.285739 " fill="#333333"/>
<path transform="matrix(1,0,0,-1,0,210.96)" stroke-width="1.25" stroke-linecap="butt" stroke-linejoin="round" fill="none" stroke="#333333" d="M 41.267984 66.285739 L 35.267984 66.285739 "/>
<text fill="#333333" xml:space="preserve" transform="matrix(1 0 -0 1 0 210.96)" font-size="8.219178" font-family="CMR8"><tspan y="-63.431859" x="20.609158">0</tspan></text>
<text fill="#333333" xml:space="preserve" transform="matrix(1 0 -0 1 0 210.96)" font-size="8.219178" font-family="CMMI8" font-style="italic"><tspan y="-63.431859" x="24.975657">.</tspan></text>
<text fill="#333333" xml:space="preserve" transform="matrix(1 0 -0 1 0 210.96)" font-size="8.219178" font-family="CMR8"><tspan y="-63.431859" x="27.401482">5</tspan></text>
<path transform="matrix(1,0,0,-1,0,210.96)" d="M 41.267984 93.70988 L 35.267984 93.70988 " fill="#333333"/>
<path transform="matrix(1,0,0,-1,0,210.96)" stroke-width="1.25" stroke-linecap="butt" stroke-linejoin="round" fill="none" stroke="#333333" d="M 41.267984 93.70988 L 35.267984 93.70988 "/>
<text fill="#333333" xml:space="preserve" transform="matrix(1 0 -0 1 0 210.96)" font-size="8.219178" font-family="CMR8"><tspan y="-90.855998" x="20.609158">1</tspan></text>
<text fill="#333333" xml:space="preserve" transform="matrix(1 0 -0 1 0 210.96)" font-size="8.219178" font-family="CMMI8" font-style="italic"><tspan y="-90.855998" x="24.975657">.</tspan></text>
<text fill="#333333" xml:space="preserve" transform="matrix(1 0 -0 1 0 210.96)" font-size="8.219178" font-family="CMR8"><tspan y="-90.855998" x="27.401482">0</tspan></text>
<text fill="#333333" xml:space="preserve" transform="matrix(0 -1 1 0 0 210.96)" font-size="9.96264" font-family="CMSS10"><tspan y="14.67198" x="47.356679 53.991796 58.415208 62.83862 67.97934 71.3766 76.15867 80.58208">Accuracy</tspan></text>
<clipPath id="cp12">
<path transform="matrix(1,0,0,-1,0,210.96)" d="M 41.267984 38.86159 L 119.630847 38.86159 L 119.630847 93.70987 L 41.267984 93.70987 Z "/>
</clipPath>
<g clip-path="url(#cp12)">
<path transform="matrix(1,0,0,-1,0,210.96)" d="M 41.267984 38.86159 L 49.104269 38.86159 L 49.104269 41.604009 L 41.267984 41.604009 Z " fill="#4c72b0"/>
<path transform="matrix(1,0,0,-1,0,210.96)" stroke-width="1" stroke-linecap="butt" stroke-miterlimit="10" stroke-linejoin="miter" fill="none" stroke="#000000" d="M 41.267984 38.86159 L 49.104269 38.86159 L 49.104269 41.604009 L 41.267984 41.604009 Z "/>
</g>
<clipPath id="cp13">
<path transform="matrix(1,0,0,-1,0,210.96)" d="M 41.267984 38.86159 L 119.630847 38.86159 L 119.630847 93.70987 L 41.267984 93.70987 Z "/>
</clipPath>
<g clip-path="url(#cp13)">
<path transform="matrix(1,0,0,-1,0,210.96)" d="M 49.104269 38.86159 L 56.94055 38.86159 L 56.94055 47.088838 L 49.104269 47.088838 Z " fill="#4c72b0"/>
<path transform="matrix(1,0,0,-1,0,210.96)" stroke-width="1" stroke-linecap="butt" stroke-miterlimit="10" stroke-linejoin="miter" fill="none" stroke="#000000" d="M 49.104269 38.86159 L 56.94055 38.86159 L 56.94055 47.088838 L 49.104269 47.088838 Z "/>
</g>
<clipPath id="cp14">
<path transform="matrix(1,0,0,-1,0,210.96)" d="M 41.267984 38.86159 L 119.630847 38.86159 L 119.630847 93.70987 L 41.267984 93.70987 Z "/>
</clipPath>
<g clip-path="url(#cp14)">
<path transform="matrix(1,0,0,-1,0,210.96)" d="M 56.94055 38.86159 L 64.77684 38.86159 L 64.77684 52.57366 L 56.94055 52.57366 Z " fill="#4c72b0"/>
<path transform="matrix(1,0,0,-1,0,210.96)" stroke-width="1" stroke-linecap="butt" stroke-miterlimit="10" stroke-linejoin="miter" fill="none" stroke="#000000" d="M 56.94055 38.86159 L 64.77684 38.86159 L 64.77684 52.57366 L 56.94055 52.57366 Z "/>
</g>
<clipPath id="cp15">
<path transform="matrix(1,0,0,-1,0,210.96)" d="M 41.267984 38.86159 L 119.630847 38.86159 L 119.630847 93.70987 L 41.267984 93.70987 Z "/>
</clipPath>
<g clip-path="url(#cp15)">
<path transform="matrix(1,0,0,-1,0,210.96)" d="M 64.77684 38.86159 L 72.61313 38.86159 L 72.61313 58.667917 L 64.77684 58.667917 Z " fill="#4c72b0"/>
<path transform="matrix(1,0,0,-1,0,210.96)" stroke-width="1" stroke-linecap="butt" stroke-miterlimit="10" stroke-linejoin="miter" fill="none" stroke="#000000" d="M 64.77684 38.86159 L 72.61313 38.86159 L 72.61313 58.667917 L 64.77684 58.667917 Z "/>
</g>
<clipPath id="cp16">
<path transform="matrix(1,0,0,-1,0,210.96)" d="M 41.267984 38.86159 L 119.630847 38.86159 L 119.630847 93.70987 L 41.267984 93.70987 Z "/>
</clipPath>
<g clip-path="url(#cp16)">
<path transform="matrix(1,0,0,-1,0,210.96)" d="M 72.61313 38.86159 L 80.44941 38.86159 L 80.44941 62.446355 L 72.61313 62.446355 Z " fill="#4c72b0"/>
<path transform="matrix(1,0,0,-1,0,210.96)" stroke-width="1" stroke-linecap="butt" stroke-miterlimit="10" stroke-linejoin="miter" fill="none" stroke="#000000" d="M 72.61313 38.86159 L 80.44941 38.86159 L 80.44941 62.446355 L 72.61313 62.446355 Z "/>
</g>
<clipPath id="cp17">
<path transform="matrix(1,0,0,-1,0,210.96)" d="M 41.267984 38.86159 L 119.630847 38.86159 L 119.630847 93.70987 L 41.267984 93.70987 Z "/>
</clipPath>
<g clip-path="url(#cp17)">
<path transform="matrix(1,0,0,-1,0,210.96)" d="M 80.44941 38.86159 L 88.2857 38.86159 L 88.2857 62.566137 L 80.44941 62.566137 Z " fill="#4c72b0"/>
<path transform="matrix(1,0,0,-1,0,210.96)" stroke-width="1" stroke-linecap="butt" stroke-miterlimit="10" stroke-linejoin="miter" fill="none" stroke="#000000" d="M 80.44941 38.86159 L 88.2857 38.86159 L 88.2857 62.566137 L 80.44941 62.566137 Z "/>
</g>
<clipPath id="cp18">
<path transform="matrix(1,0,0,-1,0,210.96)" d="M 41.267984 38.86159 L 119.630847 38.86159 L 119.630847 93.70987 L 41.267984 93.70987 Z "/>
</clipPath>
<g clip-path="url(#cp18)">
<path transform="matrix(1,0,0,-1,0,210.96)" d="M 88.2857 38.86159 L 96.12198 38.86159 L 96.12198 65.2616 L 88.2857 65.2616 Z " fill="#4c72b0"/>
<path transform="matrix(1,0,0,-1,0,210.96)" stroke-width="1" stroke-linecap="butt" stroke-miterlimit="10" stroke-linejoin="miter" fill="none" stroke="#000000" d="M 88.2857 38.86159 L 96.12198 38.86159 L 96.12198 65.2616 L 88.2857 65.2616 Z "/>
</g>
<clipPath id="cp19">
<path transform="matrix(1,0,0,-1,0,210.96)" d="M 41.267984 38.86159 L 119.630847 38.86159 L 119.630847 93.70987 L 41.267984 93.70987 Z "/>
</clipPath>
<g clip-path="url(#cp19)">
<path transform="matrix(1,0,0,-1,0,210.96)" d="M 96.12198 38.86159 L 103.95827 38.86159 L 103.95827 69.101139 L 96.12198 69.101139 Z " fill="#4c72b0"/>
<path transform="matrix(1,0,0,-1,0,210.96)" stroke-width="1" stroke-linecap="butt" stroke-miterlimit="10" stroke-linejoin="miter" fill="none" stroke="#000000" d="M 96.12198 38.86159 L 103.95827 38.86159 L 103.95827 69.101139 L 96.12198 69.101139 Z "/>
</g>
<clipPath id="cp20">
<path transform="matrix(1,0,0,-1,0,210.96)" d="M 41.267984 38.86159 L 119.630847 38.86159 L 119.630847 93.70987 L 41.267984 93.70987 Z "/>
</clipPath>
<g clip-path="url(#cp20)">
<path transform="matrix(1,0,0,-1,0,210.96)" d="M 103.95827 38.86159 L 111.794559 38.86159 L 111.794559 79.27868 L 103.95827 79.27868 Z " fill="#4c72b0"/>
<path transform="matrix(1,0,0,-1,0,210.96)" stroke-width="1" stroke-linecap="butt" stroke-miterlimit="10" stroke-linejoin="miter" fill="none" stroke="#000000" d="M 103.95827 38.86159 L 111.794559 38.86159 L 111.794559 79.27868 L 103.95827 79.27868 Z "/>
</g>
<clipPath id="cp21">
<path transform="matrix(1,0,0,-1,0,210.96)" d="M 41.267984 38.86159 L 119.630847 38.86159 L 119.630847 93.70987 L 41.267984 93.70987 Z "/>
</clipPath>
<g clip-path="url(#cp21)">
<path transform="matrix(1,0,0,-1,0,210.96)" d="M 111.794559 38.86159 L 119.63084 38.86159 L 119.63084 88.20977 L 111.794559 88.20977 Z " fill="#4c72b0"/>
<path transform="matrix(1,0,0,-1,0,210.96)" stroke-width="1" stroke-linecap="butt" stroke-miterlimit="10" stroke-linejoin="miter" fill="none" stroke="#000000" d="M 111.794559 38.86159 L 119.63084 38.86159 L 119.63084 88.20977 L 111.794559 88.20977 Z "/>
</g>
<clipPath id="cp22">
<path transform="matrix(1,0,0,-1,0,210.96)" d="M 41.267984 38.86159 L 119.630847 38.86159 L 119.630847 93.70987 L 41.267984 93.70987 Z "/>
</clipPath>
<g clip-path="url(#cp22)">
<g>
<path transform="matrix(1,0,0,-1,0,210.96)" d="M 41.267984 41.604009 L 49.104269 41.604009 L 41.267984 41.604009 Z " fill="#ff0000" fill-opacity=".6"/>
<path transform="matrix(1,0,0,-1,0,210.96)" stroke-width="1" stroke-linecap="butt" stroke-miterlimit="10" stroke-linejoin="miter" fill="none" stroke="#000000" stroke-opacity=".6" d="M 41.267984 41.604009 L 49.104269 41.604009 L 41.267984 41.604009 Z "/>
</g>
</g>
<clipPath id="cp23">
<path transform="matrix(1,0,0,-1,0,210.96)" d="M 41.267984 38.86159 L 119.630847 38.86159 L 119.630847 93.70987 L 41.267984 93.70987 Z "/>
</clipPath>
<g clip-path="url(#cp23)">
<g>
<path transform="matrix(1,0,0,-1,0,210.96)" d="M 49.104269 47.088838 L 56.94055 47.088838 L 49.104269 47.088838 Z " fill="#ff0000" fill-opacity=".6"/>
<path transform="matrix(1,0,0,-1,0,210.96)" stroke-width="1" stroke-linecap="butt" stroke-miterlimit="10" stroke-linejoin="miter" fill="none" stroke="#000000" stroke-opacity=".6" d="M 49.104269 47.088838 L 56.94055 47.088838 L 49.104269 47.088838 Z "/>
</g>
</g>
<clipPath id="cp24">
<path transform="matrix(1,0,0,-1,0,210.96)" d="M 41.267984 38.86159 L 119.630847 38.86159 L 119.630847 93.70987 L 41.267984 93.70987 Z "/>
</clipPath>
<g clip-path="url(#cp24)">
<g>
<path transform="matrix(1,0,0,-1,0,210.96)" d="M 56.94055 52.57366 L 64.77684 52.57366 L 56.94055 52.57366 Z " fill="#ff0000" fill-opacity=".6"/>
<path transform="matrix(1,0,0,-1,0,210.96)" stroke-width="1" stroke-linecap="butt" stroke-miterlimit="10" stroke-linejoin="miter" fill="none" stroke="#000000" stroke-opacity=".6" d="M 56.94055 52.57366 L 64.77684 52.57366 L 56.94055 52.57366 Z "/>
</g>
</g>
<clipPath id="cp25">
<path transform="matrix(1,0,0,-1,0,210.96)" d="M 41.267984 38.86159 L 119.630847 38.86159 L 119.630847 93.70987 L 41.267984 93.70987 Z "/>
</clipPath>
<g clip-path="url(#cp25)">
<g>
<path transform="matrix(1,0,0,-1,0,210.96)" d="M 64.77684 58.667917 L 72.61313 58.667917 L 72.61313 59.48296 L 64.77684 59.48296 Z " fill="#ff0000" fill-opacity=".6"/>
<path transform="matrix(1,0,0,-1,0,210.96)" stroke-width="1" stroke-linecap="butt" stroke-miterlimit="10" stroke-linejoin="miter" fill="none" stroke="#000000" stroke-opacity=".6" d="M 64.77684 58.667917 L 72.61313 58.667917 L 72.61313 59.48296 L 64.77684 59.48296 Z "/>
</g>
</g>
<clipPath id="cp26">
<path transform="matrix(1,0,0,-1,0,210.96)" d="M 41.267984 38.86159 L 119.630847 38.86159 L 119.630847 93.70987 L 41.267984 93.70987 Z "/>
</clipPath>
<g clip-path="url(#cp26)">
<g>
<path transform="matrix(1,0,0,-1,0,210.96)" d="M 72.61313 62.446355 L 80.44941 62.446355 L 80.44941 64.36241 L 72.61313 64.36241 Z " fill="#ff0000" fill-opacity=".6"/>
<path transform="matrix(1,0,0,-1,0,210.96)" stroke-width="1" stroke-linecap="butt" stroke-miterlimit="10" stroke-linejoin="miter" fill="none" stroke="#000000" stroke-opacity=".6" d="M 72.61313 62.446355 L 80.44941 62.446355 L 80.44941 64.36241 L 72.61313 64.36241 Z "/>
</g>
</g>
<clipPath id="cp27">
<path transform="matrix(1,0,0,-1,0,210.96)" d="M 41.267984 38.86159 L 119.630847 38.86159 L 119.630847 93.70987 L 41.267984 93.70987 Z "/>
</clipPath>
<g clip-path="url(#cp27)">
<g>
<path transform="matrix(1,0,0,-1,0,210.96)" d="M 80.44941 62.566137 L 88.2857 62.566137 L 88.2857 69.018428 L 80.44941 69.018428 Z " fill="#ff0000" fill-opacity=".6"/>
<path transform="matrix(1,0,0,-1,0,210.96)" stroke-width="1" stroke-linecap="butt" stroke-miterlimit="10" stroke-linejoin="miter" fill="none" stroke="#000000" stroke-opacity=".6" d="M 80.44941 62.566137 L 88.2857 62.566137 L 88.2857 69.018428 L 80.44941 69.018428 Z "/>
</g>
</g>
<clipPath id="cp28">
<path transform="matrix(1,0,0,-1,0,210.96)" d="M 41.267984 38.86159 L 119.630847 38.86159 L 119.630847 93.70987 L 41.267984 93.70987 Z "/>
</clipPath>
<g clip-path="url(#cp28)">
<g>
<path transform="matrix(1,0,0,-1,0,210.96)" d="M 88.2857 65.2616 L 96.12198 65.2616 L 96.12198 74.72198 L 88.2857 74.72198 Z " fill="#ff0000" fill-opacity=".6"/>
<path transform="matrix(1,0,0,-1,0,210.96)" stroke-width="1" stroke-linecap="butt" stroke-miterlimit="10" stroke-linejoin="miter" fill="none" stroke="#000000" stroke-opacity=".6" d="M 88.2857 65.2616 L 96.12198 65.2616 L 96.12198 74.72198 L 88.2857 74.72198 Z "/>
</g>
</g>
<clipPath id="cp29">
<path transform="matrix(1,0,0,-1,0,210.96)" d="M 41.267984 38.86159 L 119.630847 38.86159 L 119.630847 93.70987 L 41.267984 93.70987 Z "/>
</clipPath>
<g clip-path="url(#cp29)">
<g>
<path transform="matrix(1,0,0,-1,0,210.96)" d="M 96.12198 69.101139 L 103.95827 69.101139 L 103.95827 80.26067 L 96.12198 80.26067 Z " fill="#ff0000" fill-opacity=".6"/>
<path transform="matrix(1,0,0,-1,0,210.96)" stroke-width="1" stroke-linecap="butt" stroke-miterlimit="10" stroke-linejoin="miter" fill="none" stroke="#000000" stroke-opacity=".6" d="M 96.12198 69.101139 L 103.95827 69.101139 L 103.95827 80.26067 L 96.12198 80.26067 Z "/>
</g>
</g>
<clipPath id="cp30">
<path transform="matrix(1,0,0,-1,0,210.96)" d="M 41.267984 38.86159 L 119.630847 38.86159 L 119.630847 93.70987 L 41.267984 93.70987 Z "/>
</clipPath>
<g clip-path="url(#cp30)">
<g>
<path transform="matrix(1,0,0,-1,0,210.96)" d="M 103.95827 79.27868 L 111.794559 79.27868 L 111.794559 85.798648 L 103.95827 85.798648 Z " fill="#ff0000" fill-opacity=".6"/>
<path transform="matrix(1,0,0,-1,0,210.96)" stroke-width="1" stroke-linecap="butt" stroke-miterlimit="10" stroke-linejoin="miter" fill="none" stroke="#000000" stroke-opacity=".6" d="M 103.95827 79.27868 L 111.794559 79.27868 L 111.794559 85.798648 L 103.95827 85.798648 Z "/>
</g>
</g>
<clipPath id="cp31">
<path transform="matrix(1,0,0,-1,0,210.96)" d="M 41.267984 38.86159 L 119.630847 38.86159 L 119.630847 93.70987 L 41.267984 93.70987 Z "/>
</clipPath>
<g clip-path="url(#cp31)">
<g>
<path transform="matrix(1,0,0,-1,0,210.96)" d="M 111.794559 88.20977 L 119.63084 88.20977 L 119.63084 88.59479 L 111.794559 88.59479 Z " fill="#ff0000" fill-opacity=".6"/>
<path transform="matrix(1,0,0,-1,0,210.96)" stroke-width="1" stroke-linecap="butt" stroke-miterlimit="10" stroke-linejoin="miter" fill="none" stroke="#000000" stroke-opacity=".6" d="M 111.794559 88.20977 L 119.63084 88.20977 L 119.63084 88.59479 L 111.794559 88.59479 Z "/>
</g>
</g>
<clipPath id="cp32">
<path transform="matrix(1,0,0,-1,0,210.96)" d="M 41.267984 38.86159 L 119.630847 38.86159 L 119.630847 93.70987 L 41.267984 93.70987 Z "/>
</clipPath>
<g clip-path="url(#cp32)">
<path transform="matrix(1,0,0,-1,0,210.96)" stroke-width="1.25" stroke-linecap="butt" stroke-dasharray="4.625,2" stroke-linejoin="round" fill="none" stroke="#ff0000" d="M 41.267984 38.86159 L 119.63084 93.70988 "/>
</g>
<path transform="matrix(1,0,0,-1,0,210.96)" stroke-width="1.25" stroke-linecap="square" stroke-miterlimit="10" stroke-linejoin="miter" fill="none" stroke="#333333" d="M 41.267984 38.86159 L 41.267984 93.70988 "/>
<path transform="matrix(1,0,0,-1,0,210.96)" stroke-width="1.25" stroke-linecap="square" stroke-miterlimit="10" stroke-linejoin="miter" fill="none" stroke="#333333" d="M 119.63084 38.86159 L 119.63084 93.70988 "/>
<path transform="matrix(1,0,0,-1,0,210.96)" stroke-width="1.25" stroke-linecap="square" stroke-miterlimit="10" stroke-linejoin="miter" fill="none" stroke="#333333" d="M 41.267984 38.86159 L 119.63084 38.86159 "/>
<path transform="matrix(1,0,0,-1,0,210.96)" stroke-width="1.25" stroke-linecap="square" stroke-miterlimit="10" stroke-linejoin="miter" fill="none" stroke="#333333" d="M 41.267984 93.70988 L 119.63084 93.70988 "/>
<g>
<path transform="matrix(1,0,0,-1,0,210.96)" d="M 76.531269 41.946424 L 119.68949 41.946424 C 121.28949 41.946424 122.08949 42.74642 122.08949 44.34642 L 122.08949 51.43097 C 122.08949 53.030969 121.28949 53.830968 119.68949 53.830968 L 76.531269 53.830968 C 74.93127 53.830968 74.13127 53.030969 74.13127 51.43097 L 74.13127 44.34642 C 74.13127 42.74642 74.93127 41.946424 76.531269 41.946424 Z " fill="#b0c4de" fill-opacity=".95"/>
<path transform="matrix(1,0,0,-1,0,210.96)" stroke-width="1" stroke-linecap="butt" stroke-miterlimit="10" stroke-linejoin="miter" fill="none" stroke="#ffffff" stroke-opacity=".95" d="M 76.531269 41.946424 L 119.68949 41.946424 C 121.28949 41.946424 122.08949 42.74642 122.08949 44.34642 L 122.08949 51.43097 C 122.08949 53.030969 121.28949 53.830968 119.68949 53.830968 L 76.531269 53.830968 C 74.93127 53.830968 74.13127 53.030969 74.13127 51.43097 L 74.13127 44.34642 C 74.13127 42.74642 74.93127 41.946424 76.531269 41.946424 Z "/>
</g>
<text fill="#333333" xml:space="preserve" transform="matrix(1 0 -0 1 0 210.96)" font-size="7.970112" font-family="CMSS8"><tspan y="-45.896169" x="76.531269 81.60823 84.49341 87.378589 91.37549 94.260669 100.375568 104.6077 108.83983 111.19101 115.42314">Error:11.54</tspan></text>
<g>
<path transform="matrix(1,0,0,-1,0,210.96)" d="M 46.16798 68.59785 L 90.87001 68.59785 C 91.803348 68.59785 92.27001 69.064517 92.27001 69.99785 L 92.27001 88.809879 C 92.27001 89.74321 91.803348 90.20988 90.87001 90.20988 L 46.16798 90.20988 C 45.23465 90.20988 44.767984 89.74321 44.767984 88.809879 L 44.767984 69.99785 C 44.767984 69.064517 45.23465 68.59785 46.16798 68.59785 Z " fill="#ffffff" fill-opacity=".8"/>
<path transform="matrix(1,0,0,-1,0,210.96)" stroke-width="1" stroke-linecap="butt" stroke-miterlimit="10" stroke-linejoin="miter" fill="none" stroke="#d5d6d5" stroke-opacity=".8" d="M 46.16798 68.59785 L 90.87001 68.59785 C 91.803348 68.59785 92.27001 69.064517 92.27001 69.99785 L 92.27001 88.809879 C 92.27001 89.74321 91.803348 90.20988 90.87001 90.20988 L 46.16798 90.20988 C 45.23465 90.20988 44.767984 89.74321 44.767984 88.809879 L 44.767984 69.99785 C 44.767984 69.064517 45.23465 68.59785 46.16798 68.59785 Z "/>
</g>
<path transform="matrix(1,0,0,-1,0,210.96)" d="M 47.56798 82.50987 L 61.56798 82.50987 L 61.56798 87.409877 L 47.56798 87.409877 Z " fill="#4c72b0"/>
<path transform="matrix(1,0,0,-1,0,210.96)" stroke-width="1" stroke-linecap="butt" stroke-miterlimit="10" stroke-linejoin="miter" fill="none" stroke="#000000" d="M 47.56798 82.50987 L 61.56798 82.50987 L 61.56798 87.409877 L 47.56798 87.409877 Z "/>
<text fill="#333333" xml:space="preserve" transform="matrix(1 0 -0 1 0 210.96)" font-size="6.973848" font-family="CMSS8"><tspan y="-82.50987" x="67.167987 72.63548 76.45715 79.128139 82.94981 86.77148">Output</tspan></text>
<g>
<path transform="matrix(1,0,0,-1,0,210.96)" d="M 47.56798 72.75386 L 61.56798 72.75386 L 61.56798 77.65386 L 47.56798 77.65386 Z " fill="#ff0000" fill-opacity=".6"/>
<path transform="matrix(1,0,0,-1,0,210.96)" stroke-width="1" stroke-linecap="butt" stroke-miterlimit="10" stroke-linejoin="miter" fill="none" stroke="#000000" stroke-opacity=".6" d="M 47.56798 72.75386 L 61.56798 72.75386 L 61.56798 77.65386 L 47.56798 77.65386 Z "/>
</g>
<text fill="#333333" xml:space="preserve" transform="matrix(1 0 -0 1 0 210.96)" font-size="6.973848" font-family="CMSS8"><tspan y="-72.75386" x="67.167987 72.10547 75.66213">Gap</tspan></text>
</g>
</svg>
